<svg width="133" height="48" viewBox="0 0 133 48" fill="none" xmlns="http://www.w3.org/2000/svg">
<g clip-path="url(#clip0_1_5184)">
<path d="M39.0254 20.6557C38.9775 20.5126 38.9014 20.381 38.8019 20.2689C38.7024 20.1568 38.5816 20.0666 38.4467 20.0038C38.3119 19.941 38.1659 19.9069 38.0177 19.9037C37.8695 19.9005 37.7223 19.9281 37.5849 19.985L34.8465 21.1199C34.8223 21.1299 34.8018 21.1439 34.779 21.1555C34.0046 19.212 32.857 17.4463 31.4038 15.9622C31.4243 15.9436 31.4463 15.9289 31.466 15.9088L33.544 13.7659C33.6479 13.659 33.7295 13.5317 33.7836 13.3917C33.8378 13.2517 33.8634 13.1018 33.859 12.9514C33.8546 12.8009 33.8203 12.6529 33.758 12.5165C33.6958 12.38 33.607 12.2579 33.497 12.1575C32.1887 10.9703 30.7305 9.96732 29.1612 9.1752C29.0277 9.10825 28.8821 9.06997 28.7334 9.06272C28.5848 9.05548 28.4363 9.07942 28.2971 9.13308C28.1579 9.18674 28.0309 9.26897 27.9241 9.37468C27.8173 9.48039 27.7328 9.60734 27.676 9.74768L26.5525 12.5412C26.5441 12.5613 26.5411 12.5815 26.5343 12.6016C24.6416 11.782 22.6063 11.361 20.5503 11.3638H20.5078C20.5078 11.3321 20.5154 11.3019 20.5154 11.2694L20.4684 8.25228C20.4659 8.10221 20.4336 7.95422 20.3736 7.81721C20.3135 7.68021 20.2269 7.55703 20.1189 7.4551C20.011 7.35318 19.8839 7.27461 19.7454 7.22415C19.6069 7.17369 19.4598 7.15236 19.313 7.16147C17.534 7.27418 15.7788 7.63682 14.097 8.23912C13.9562 8.29021 13.8273 8.37037 13.7183 8.47458C13.6093 8.57879 13.5225 8.70482 13.4634 8.8448C13.4043 8.98477 13.3741 9.13568 13.3747 9.28811C13.3753 9.44053 13.4067 9.59118 13.4669 9.73066L14.6572 12.4994C14.6648 12.518 14.6762 12.5335 14.6845 12.5505C12.7566 13.3697 11.0122 14.5805 9.5572 16.1092C9.5337 16.0821 9.51399 16.0535 9.48821 16.0318L7.33357 13.9724C7.22614 13.87 7.09951 13.7908 6.96129 13.7395C6.82308 13.6883 6.67614 13.6662 6.52932 13.6744C6.3825 13.6827 6.23883 13.7211 6.10695 13.7875C5.97508 13.8539 5.85772 13.9468 5.76194 14.0606C4.63162 15.4001 3.68068 16.8868 2.93408 18.4818C2.86942 18.6199 2.83339 18.7701 2.82824 18.923C2.8231 19.076 2.84895 19.2283 2.90417 19.3706C2.9594 19.5129 3.04281 19.642 3.14919 19.7498C3.25557 19.8577 3.38262 19.9419 3.52239 19.9974L6.27976 21.0897C6.29947 21.0975 6.31994 21.1005 6.33965 21.1067C5.58397 22.9864 5.19585 24.9987 5.19713 27.0303C5.19713 27.1603 5.20395 27.2895 5.20698 27.4172C5.17439 27.4172 5.1433 27.4102 5.1107 27.411L2.1585 27.517C2.01108 27.5225 1.86629 27.5585 1.73291 27.6228C1.59953 27.6871 1.48032 27.7784 1.3825 27.891C1.28469 28.0037 1.21031 28.1355 1.16386 28.2784C1.1174 28.4212 1.09985 28.5723 1.11226 28.7222C1.24705 30.38 1.5866 32.0136 2.12287 33.5844C2.17218 33.7275 2.2497 33.8588 2.35064 33.9701C2.45159 34.0814 2.57382 34.1704 2.70979 34.2317C2.84576 34.293 2.99258 34.3251 3.14121 34.3262C3.28984 34.3274 3.43711 34.2974 3.57395 34.2382L6.29795 33.0607C6.32221 33.0507 6.34268 33.0352 6.36542 33.0236C7.19162 35.0452 8.42231 36.8686 9.97873 38.377C9.95901 38.3956 9.93703 38.4103 9.91808 38.4304L7.87109 40.6058C7.76819 40.7148 7.6882 40.844 7.63603 40.9856C7.58386 41.1273 7.56061 41.2783 7.56771 41.4294C7.57481 41.5805 7.61211 41.7286 7.67732 41.8645C7.74253 42.0003 7.83427 42.1212 7.94691 42.2196C9.15479 43.2663 10.4826 44.1597 11.9014 44.8801C12.0338 44.9477 12.1784 44.987 12.3263 44.9957C12.4741 45.0044 12.6221 44.9823 12.7613 44.9306C12.9005 44.879 13.028 44.799 13.1358 44.6955C13.2437 44.5919 13.3298 44.4671 13.3888 44.3285L14.57 41.5643C14.5829 41.5342 14.5897 41.5032 14.5996 41.4723C16.4829 42.2827 18.5064 42.6991 20.5503 42.6969C20.6397 42.6969 20.7277 42.6923 20.8164 42.6907C20.8164 42.7093 20.8111 42.7279 20.8111 42.748L20.7929 45.7651C20.792 45.9184 20.8221 46.0702 20.8814 46.2111C20.9408 46.3519 21.028 46.4787 21.1376 46.5835C21.2472 46.6884 21.3769 46.7689 21.5185 46.8202C21.6601 46.8715 21.8105 46.8923 21.9604 46.8814C23.5864 46.7627 25.1912 46.4349 26.7367 45.9059C26.875 45.8582 27.0026 45.7826 27.1117 45.6836C27.2209 45.5847 27.3094 45.4643 27.3721 45.3297C27.4347 45.1951 27.4703 45.049 27.4765 44.9002C27.4827 44.7513 27.4596 44.6026 27.4084 44.4631L26.3735 41.6432C26.3588 41.6084 26.3423 41.5743 26.3243 41.5411C28.2613 40.7345 30.0172 39.534 31.4849 38.0126C31.4948 38.0243 31.5024 38.0382 31.5137 38.0498L33.5607 40.2337C33.6644 40.3444 33.7895 40.432 33.928 40.4909C34.0665 40.5499 34.2155 40.5789 34.3656 40.5762C34.5156 40.5735 34.6635 40.5392 34.7999 40.4753C34.9363 40.4114 35.0583 40.3194 35.1581 40.2051C36.3177 38.8675 37.2963 37.3774 38.0679 35.7746C38.1327 35.6386 38.1696 35.4906 38.1764 35.3396C38.1833 35.1886 38.1598 35.0377 38.1075 34.8963C38.0552 34.7549 37.9751 34.6258 37.8722 34.517C37.7694 34.4082 37.6458 34.322 37.5091 34.2637L34.7798 33.1033C34.7563 33.094 34.7328 33.0893 34.7093 33.0816C35.498 31.166 35.9032 29.1089 35.9011 27.0311C35.9011 26.9785 35.9011 26.9275 35.8973 26.8764C35.9231 26.8764 35.9473 26.8834 35.9731 26.8834L38.9299 26.8547C39.0784 26.8531 39.225 26.8205 39.3607 26.759C39.4964 26.6975 39.6184 26.6083 39.7191 26.497C39.8198 26.3856 39.8972 26.2545 39.9465 26.1115C39.9958 25.9686 40.0159 25.8169 40.0057 25.6657C39.8927 23.9595 39.5631 22.2754 39.0254 20.6557ZM20.5503 41.1296C12.9317 41.1296 6.73312 34.8044 6.73312 27.0303C6.73312 19.2562 12.9317 12.9304 20.5503 12.9304C28.1688 12.9304 34.3681 19.2555 34.3681 27.0303C34.3681 34.8052 28.1696 41.1296 20.5503 41.1296Z" fill="#00AFFA"/>
<path d="M20.5502 6.05981C9.219 6.05981 0 15.467 0 27.0303C0 38.5936 9.219 48 20.5502 48C31.8814 48 41.1011 38.5928 41.1011 27.0303C41.1011 15.4678 31.8821 6.05981 20.5502 6.05981ZM20.5502 47.4779C9.50103 47.4779 0.511746 38.305 0.511746 27.0303C0.511746 15.7556 9.50103 6.58201 20.5502 6.58201C31.5993 6.58201 40.5894 15.7548 40.5894 27.0303C40.5894 38.3058 31.6001 47.4779 20.5502 47.4779Z" fill="#00AFFA"/>
<path d="M70.8952 9.82497L66.1591 0L61.423 9.82497L55.4958 3.31187L57.6186 13.239C63.0927 10.9407 69.2346 10.9407 74.7087 13.239C75.4153 10.0849 76.1218 6.46591 76.8315 3.31187L70.8952 9.82497Z" fill="#00AFFA"/>
<path d="M58.8848 5.22571L61.1251 7.51098L62.5458 4.89769L60.1675 1.50537L58.8848 5.22571Z" fill="#CD03FF"/>
<path d="M90.7874 24.6878L88.055 26.324L87.325 23.4299L90.3492 21.2073L90.7874 24.6878Z" fill="#CD03FF"/>
<path d="M73.7824 5.22571L71.5421 7.51098L70.1213 4.89769L72.4996 1.50537L73.7824 5.22571Z" fill="#CD03FF"/>
<path d="M20.5509 38.3716C26.6896 38.3716 31.666 33.2936 31.666 27.0295C31.666 20.7655 26.6896 15.6875 20.5509 15.6875C14.4122 15.6875 9.43579 20.7655 9.43579 27.0295C9.43579 33.2936 14.4122 38.3716 20.5509 38.3716Z" fill="#CD03FF"/>
<path d="M56.6498 13.4363L56.9531 17.9233L53.4656 15.0802H51.3428V20.5497L54.6786 22.7159L43.2989 22.2517L46.6393 20.0856V14.6215H44.5165L41.0291 17.4645L41.3323 12.9775L56.6498 13.4363Z" fill="#231F20"/>
<path d="M56.6498 13.4363L56.9531 17.9233L53.4656 15.0802H51.3428V20.5497L54.6786 22.7159L43.2989 22.2517L46.6393 20.0856V14.6215H44.5165L41.0291 17.4645L41.3323 12.9775L56.6498 13.4363Z" fill="white"/>
<path d="M66.4132 13.1228C68.715 13.1228 70.7137 13.6445 72.4094 14.6879C74.1051 15.7312 74.953 16.9579 74.953 18.368C74.953 19.6785 74.0985 20.8087 72.3897 21.7587C70.6808 22.7087 68.6508 23.184 66.2995 23.1845C63.9933 23.1845 61.9667 22.7026 60.22 21.7386C58.4732 20.7747 57.5999 19.6578 57.5999 18.3881C57.5999 16.9507 58.4677 15.7129 60.2033 14.6747C61.939 13.6365 64.0089 13.1192 66.4132 13.1228ZM66.2798 14.7289C65.3326 14.7289 64.5603 15.0427 63.9629 15.6704C63.3655 16.298 63.0655 17.1088 63.063 18.1026C63.063 19.0913 63.3564 19.8837 63.9432 20.4799C64.53 21.0761 65.3079 21.3745 66.2768 21.375C67.2502 21.375 68.0291 21.078 68.6134 20.4838C69.1976 19.8897 69.4898 19.0959 69.4898 18.1026C69.4898 17.1139 69.1898 16.3045 68.5899 15.6742C67.9899 15.044 67.2189 14.7289 66.2768 14.7289H66.2798Z" fill="white"/>
<path d="M75.4966 13.4363H87.5298C89.4403 13.4363 91.0071 13.7491 92.2303 14.3747C93.4534 15.0003 94.0645 15.803 94.0635 16.783C94.0635 17.6814 93.5447 18.3867 92.507 18.8988C91.4694 19.4109 90.035 19.667 88.2038 19.667H83.5435V20.552L86.8793 22.7182H75.4966L78.8324 20.552V15.5792L75.4966 13.4363ZM83.5427 17.9233H87.0097C87.7785 17.9233 88.3117 17.8258 88.6094 17.6308C88.9071 17.4359 89.0559 17.0867 89.0559 16.5834C89.0559 15.6452 88.3873 15.1759 87.0499 15.1754H83.5427V17.9233Z" fill="white"/>
<path d="M57.5679 23.9219V28.2758C56.1628 26.416 54.0428 25.4864 51.2078 25.4869C48.3679 25.4869 46.9479 26.1058 46.9479 28.2812C46.9479 29.3695 47.3312 30.1562 48.098 30.6416C48.8644 31.1266 50.1055 31.8337 51.8212 31.8337C53.4386 31.8337 54.7863 31.566 55.8644 31.0307C56.9424 30.4953 57.4547 29.8401 57.4011 29.0649C57.3993 29.0212 57.3925 28.9778 57.3806 28.9357C57.8477 29.2034 58.0812 29.582 58.0812 30.0714C58.0812 31.1962 57.4067 32.1045 56.0577 32.7961C54.7087 33.4877 52.9344 33.8335 50.7348 33.8335C48.2056 33.8335 46.0275 32.8912 44.2011 31.9343C42.3747 30.9773 41.4612 29.8362 41.4612 28.5126C41.4612 27.1649 42.3813 25.9596 44.2216 24.8967C46.0608 23.8329 48.148 23.7656 50.4808 23.7656C52.499 23.7656 54.2879 24.1555 55.8477 24.9353L57.5679 23.9219Z" fill="white"/>
<path d="M71.0008 30.9449C71.6235 31.0305 71.9346 31.3797 71.9341 31.9924C71.9341 33.1126 71.0054 33.6727 69.1479 33.6727C67.6013 33.6727 66.71 33.1964 66.474 32.2438C65.9943 32.7838 65.4636 33.1569 64.8819 33.3632C64.3001 33.5695 63.4879 33.6727 62.4452 33.6727C60.1829 33.6727 59.0518 33.1239 59.0518 32.0264C59.0518 30.8696 60.0962 30.1396 62.1852 29.8363L62.9986 29.7203L66.2056 29.2646V28.7339C66.2056 28.1903 65.6943 27.9182 64.6719 27.9177C63.4144 27.9177 62.7856 28.2125 62.7856 28.802C62.7856 28.9428 62.8561 29.0967 62.9986 29.2661C62.3633 29.4389 61.6077 29.5251 60.7318 29.5245C59.7629 29.5245 59.2784 29.2251 59.2784 28.6264C59.2784 28.0142 59.8091 27.5154 60.8705 27.1302C61.9319 26.7449 63.3075 26.552 64.9971 26.5515C66.7792 26.5515 68.0582 26.7261 68.8341 27.0753C69.6099 27.4244 69.9976 28.0005 69.997 28.8035V31.3271C69.997 31.98 70.1704 32.3067 70.5171 32.3072C70.882 32.3072 71.0643 32.0396 71.0638 31.5042C71.0569 31.3164 71.0359 31.1294 71.0008 30.9449ZM66.2079 30.3662L64.6279 30.5983L64.1677 30.6532C63.3085 30.7662 62.8789 31.0756 62.8789 31.5816C62.8789 32.0669 63.2632 32.3096 64.032 32.3096C64.6547 32.3096 65.1725 32.1757 65.5854 31.9081C65.9984 31.6404 66.2051 31.307 66.2056 30.9078L66.2079 30.3662Z" fill="white"/>
<path d="M82.6807 26.7046V29.1802C80.8409 28.2735 78.9708 27.8201 77.0704 27.8201C75.8751 27.8201 75.2774 27.9749 75.2774 28.2843C75.2774 28.5334 75.5241 28.658 76.0174 28.658L77.9127 28.7353C79.6059 28.7353 80.9625 28.9767 81.9824 29.4594C83.0024 29.9422 83.5124 30.5851 83.5124 31.3881C83.5124 32.9121 82.1568 33.6741 79.4457 33.6741C77.9658 33.6741 76.3636 33.4248 74.6391 32.926L72.7998 33.7082V30.616C73.659 31.1555 74.7012 31.6088 75.9264 31.976C77.1515 32.3432 78.2514 32.5271 79.2258 32.5276L79.7929 32.5338L80.8391 32.2893C80.8637 32.2748 80.884 32.2539 80.8981 32.2288C80.9122 32.2037 80.9196 32.1752 80.9195 32.1462C80.9195 31.8198 80.5195 31.6565 79.7194 31.6565C74.9244 31.6565 72.5266 30.7519 72.5261 28.9427C72.5261 27.3438 73.9638 26.5444 76.8392 26.5444C78.1921 26.5432 79.5356 26.7755 80.8126 27.2314L82.6807 26.7046Z" fill="white"/>
<path d="M90.2538 26.6296V31.5885L92.7867 33.2905H83.8809L86.4585 31.5885V28.4941L83.8809 26.7867L90.2538 26.6296Z" fill="white"/>
<path d="M92.2871 26.861L98.5039 26.7062V28.4948C98.9926 27.7511 99.5003 27.2421 100.027 26.9677C100.554 26.6933 101.275 26.5562 102.191 26.5562C104.63 26.5562 105.85 27.3749 105.85 29.0124V31.6651L108.428 33.3671H100.467L102.067 31.9746V29.7319C102.067 28.8195 101.574 28.3636 100.587 28.3641C100.014 28.3641 99.5491 28.5446 99.1938 28.9056C98.8385 29.2667 98.6616 29.7404 98.6631 30.3268V31.9668L100.255 33.3594H92.2871L94.8648 31.6574V28.5629L92.2871 26.861Z" fill="white"/>
<path d="M132.173 26.7046V29.1802C130.333 28.2735 128.463 27.8201 126.563 27.8201C125.367 27.8201 124.77 27.9749 124.77 28.2843C124.77 28.5334 125.016 28.658 125.51 28.658L127.405 28.7353C129.099 28.7353 130.455 28.9767 131.475 29.4594C132.494 29.9422 133.004 30.5851 133.005 31.3881C133.005 32.9121 131.65 33.6741 128.939 33.6741C127.458 33.6741 125.856 33.4248 124.132 32.926L122.288 33.7043V30.616C123.148 31.1555 124.19 31.6088 125.415 31.976C126.64 32.3432 127.74 32.5271 128.715 32.5276L129.281 32.5338L130.328 32.2893C130.352 32.2748 130.373 32.2539 130.387 32.2288C130.401 32.2037 130.408 32.1752 130.408 32.1462C130.408 31.8198 130.008 31.6565 129.208 31.6565C124.413 31.6565 122.015 30.7519 122.015 28.9427C122.015 27.3438 123.452 26.5444 126.328 26.5444C127.681 26.5432 129.024 26.7755 130.301 27.2314L132.173 26.7046Z" fill="white"/>
<path d="M53.9881 35.8396V38.6099L51.6295 36.8963L47.1982 36.5761V37.9755L49.6318 38.2958L51.3626 37.5446V40.4372L49.6318 39.5638L47.1982 39.2427V40.6608L51.6295 40.9818L54.1693 39.1406V42.249L41.6516 41.9303L43.9564 40.4465V37.0077L41.6516 35.5193L53.9881 35.8396Z" fill="white"/>
<path d="M68.7635 35.8394L66.458 37.3332V40.0734C66.458 40.9223 66.0905 41.5507 65.3556 41.9587C64.6208 42.3666 63.4926 42.5709 61.9713 42.5714C60.4712 42.5714 59.2488 42.3393 58.3042 41.8751C57.3595 41.411 56.8857 40.8104 56.8827 40.0734V37.3332L54.5771 35.8394H62.2207L60.1267 37.3332V39.7748C60.1267 40.3008 60.3036 40.6827 60.6574 40.9205C61.0112 41.1582 61.5804 41.2771 62.3648 41.2771C63.1735 41.2771 63.7603 41.1575 64.1252 40.9182C64.4901 40.6789 64.6733 40.2977 64.6748 39.7748V37.3332L62.5808 35.8394H68.7635Z" fill="white"/>
<path d="M20.5592 20.5605C20.5592 20.5605 19.7108 23.4957 16.5039 26.3627C16.5039 26.3627 20.0854 30.0761 20.5592 32.4008C21.033 30.0737 24.6137 26.3627 24.6137 26.3627C21.4076 23.4957 20.5592 20.5605 20.5592 20.5605Z" fill="white"/>
<path d="M120.893 28.2077C120.876 28.1593 120.851 28.1147 120.817 28.0768C120.783 28.0389 120.742 28.0084 120.697 27.9872C120.651 27.9659 120.602 27.9544 120.552 27.9534C120.501 27.9523 120.452 27.9617 120.405 27.981L119.478 28.364L119.455 28.3763C119.193 27.7183 118.805 27.1206 118.313 26.6187C118.319 26.6125 118.327 26.6071 118.334 26.6001L119.037 25.8752C119.072 25.839 119.099 25.7961 119.117 25.749C119.135 25.7019 119.143 25.6515 119.142 25.601C119.141 25.5505 119.129 25.5008 119.108 25.4549C119.088 25.4089 119.058 25.3677 119.021 25.3337C118.578 24.933 118.085 24.5948 117.554 24.328C117.508 24.3053 117.459 24.2923 117.409 24.2898C117.358 24.2873 117.308 24.2955 117.261 24.3137C117.214 24.3319 117.171 24.3598 117.135 24.3957C117.099 24.4315 117.07 24.4746 117.051 24.5222L116.672 25.4683C116.672 25.4745 116.668 25.4815 116.665 25.4884C116.025 25.2109 115.336 25.0683 114.64 25.0691H114.626C114.627 25.0583 114.627 25.0474 114.626 25.0366L114.61 24.017C114.609 23.9661 114.598 23.9159 114.578 23.8695C114.558 23.823 114.528 23.7812 114.492 23.7466C114.455 23.7121 114.412 23.6854 114.365 23.6683C114.318 23.6512 114.268 23.6441 114.219 23.6472C113.617 23.6855 113.023 23.8084 112.454 24.0124C112.406 24.0297 112.362 24.0568 112.325 24.0921C112.289 24.1274 112.259 24.1701 112.239 24.2175C112.219 24.2649 112.209 24.3161 112.209 24.3677C112.21 24.4193 112.22 24.4703 112.241 24.5175L112.645 25.4521C112.645 25.4582 112.652 25.4637 112.654 25.4691C112.001 25.7449 111.41 26.1534 110.916 26.6697C110.909 26.66 110.901 26.6509 110.893 26.6427L110.164 25.9464C110.128 25.9119 110.085 25.8853 110.038 25.868C109.992 25.8508 109.942 25.8433 109.893 25.8461C109.843 25.8488 109.795 25.8617 109.75 25.884C109.706 25.9063 109.666 25.9375 109.633 25.9758C109.25 26.4292 108.928 26.9326 108.675 27.4728C108.653 27.5195 108.641 27.5703 108.64 27.6221C108.638 27.6738 108.647 27.7254 108.665 27.7735C108.684 27.8217 108.712 27.8653 108.748 27.9018C108.784 27.9383 108.827 27.9669 108.874 27.9857L109.808 28.3555L109.828 28.3609C109.572 28.9972 109.441 29.6783 109.442 30.3661C109.442 30.4102 109.442 30.4535 109.442 30.4976C109.431 30.4968 109.42 30.4968 109.409 30.4976L108.41 30.5332C108.36 30.5351 108.311 30.5473 108.266 30.5691C108.221 30.5908 108.18 30.6217 108.147 30.6598C108.114 30.6979 108.089 30.7425 108.073 30.7908C108.058 30.8391 108.052 30.8902 108.056 30.9409C108.101 31.5017 108.217 32.0543 108.398 32.5856C108.415 32.6341 108.441 32.6786 108.475 32.7163C108.51 32.7541 108.551 32.7842 108.597 32.805C108.643 32.8257 108.693 32.8366 108.743 32.8369C108.793 32.8372 108.843 32.827 108.89 32.8069L109.812 32.4084C109.819 32.4048 109.827 32.4007 109.834 32.3961C110.114 33.0803 110.53 33.6974 111.057 34.2079C111.05 34.2137 111.043 34.2199 111.037 34.2265L110.345 34.9622C110.31 34.9991 110.283 35.0429 110.265 35.0909C110.248 35.1388 110.24 35.1899 110.242 35.2411C110.245 35.2922 110.258 35.3423 110.28 35.3883C110.302 35.4342 110.333 35.4751 110.371 35.5083C110.78 35.8629 111.229 36.1653 111.71 36.4088C111.755 36.4314 111.803 36.4445 111.853 36.4473C111.903 36.4501 111.953 36.4426 112 36.4251C112.047 36.4077 112.089 36.3807 112.126 36.3459C112.162 36.311 112.191 36.269 112.211 36.2224L112.611 35.2871C112.615 35.2767 112.618 35.2661 112.62 35.2554C113.258 35.5297 113.943 35.6707 114.635 35.67C114.665 35.67 114.695 35.67 114.725 35.67C114.725 35.6765 114.725 35.6829 114.725 35.6894L114.719 36.7121C114.719 36.7639 114.729 36.8152 114.749 36.8629C114.769 36.9105 114.799 36.9533 114.836 36.9888C114.873 37.0242 114.917 37.0514 114.965 37.0688C115.012 37.0861 115.063 37.0932 115.114 37.0896C115.665 37.0493 116.208 36.9383 116.731 36.7593C116.778 36.7432 116.821 36.7176 116.858 36.6842C116.895 36.6507 116.925 36.61 116.946 36.5644C116.967 36.5189 116.98 36.4694 116.982 36.419C116.984 36.3687 116.976 36.3184 116.959 36.2711L116.608 35.3165C116.603 35.3048 116.598 35.2935 116.592 35.2824C117.246 35.009 117.839 34.6026 118.335 34.088L118.344 34.1004L119.038 34.8392C119.073 34.8767 119.115 34.9064 119.162 34.9264C119.209 34.9464 119.26 34.9562 119.31 34.9554C119.361 34.9545 119.411 34.9429 119.457 34.9213C119.504 34.8997 119.545 34.8686 119.579 34.8299C119.971 34.3772 120.303 33.873 120.564 33.3306C120.586 33.2846 120.599 33.2344 120.601 33.1833C120.604 33.1321 120.596 33.081 120.578 33.0331C120.56 32.9852 120.533 32.9415 120.498 32.9047C120.463 32.8679 120.421 32.8389 120.375 32.8192L119.451 32.4255C119.444 32.4221 119.435 32.4195 119.427 32.4177C119.694 31.7695 119.832 31.0732 119.831 30.37C119.831 30.3522 119.831 30.3351 119.831 30.3174C119.84 30.3174 119.848 30.3174 119.857 30.3174L120.857 30.3073C120.907 30.3068 120.957 30.2958 121.003 30.275C121.049 30.2542 121.09 30.2241 121.124 30.1864C121.158 30.1487 121.185 30.1043 121.201 30.056C121.218 30.0076 121.225 29.9562 121.222 29.905C121.184 29.3271 121.073 28.7567 120.893 28.2077Z" fill="#00AFFA"/>
<path d="M114.794 34.8523C117.192 34.8523 119.137 32.8684 119.137 30.421C119.137 27.9737 117.192 25.9897 114.794 25.9897C112.396 25.9897 110.451 27.9737 110.451 30.421C110.451 32.8684 112.396 34.8523 114.794 34.8523Z" fill="#CD03FF"/>
<path d="M114.797 27.8936C114.797 27.8936 114.466 29.0401 113.213 30.1603C113.213 30.1603 114.612 31.61 114.797 32.519C114.982 31.61 116.382 30.1603 116.382 30.1603C115.129 29.0401 114.797 27.8936 114.797 27.8936Z" fill="white"/>
</g>
<defs>
<clipPath id="clip0_1_5184">
<rect width="133" height="48" fill="white"/>
</clipPath>
</defs>
</svg>
